<svg id="Layer_1" data-name="Layer 1" xmlns="http://www.w3.org/2000/svg" viewBox="0 0 320 50">
    <defs>
        <style>
            .cls-1 {
                fill: #be1e2d;
                stroke-width: 0px;
            }
        </style>
    </defs>
    <g>
        <path class="cls-1" d="m43.25,21.61c0-2.3-.96-4.17-2.85-5.55-1.94-1.42-3.89-2.85-5.83-4.27-2.86-2.1-5.72-4.2-8.59-6.28-1.36-.99-2.74-1.49-4.11-1.49s-2.79.51-4.18,1.53c-2.29,1.67-4.57,3.35-6.85,5.02-2.48,1.82-4.95,3.64-7.43,5.44-1.94,1.42-2.93,3.32-2.94,5.67v4.35c-.02,4.41-.03,8.82.01,13.22.04,3.95,2.69,6.71,6.45,6.71.69,0,1.4-.1,2.11-.29l.72-.19c4.1-1.1,8.34-2.23,12.47-3.48,8.04-2.39,11.73-8.07,11.29-17.34,0-.64-.45-1.48-1.01-1.87-1.63-1.15-3.29-2.27-4.95-3.38-1.51-1.02-3.02-2.03-4.51-3.08-.39-.27-.73-.4-1.07-.4-.46,0-.86.23-1.19.46-.56.39-1.12.8-1.68,1.2-1.63,1.18-3.31,2.39-5.09,3.31-2.91,1.5-3.96,3.54-3.65,7.03.53,5.59,2.37,8.93,6.75,12.14l-2.63.73c-2.15.6-4.23,1.18-6.31,1.74-.42.11-.83.17-1.23.17-1.94,0-3.2-1.39-3.22-3.54-.02-3.45-.02-6.89-.02-10.33,0-2.36,0-4.72,0-7.08,0-1.31.5-2.32,1.55-3.09,1.94-1.42,3.87-2.84,5.81-4.26,2.9-2.13,5.81-4.26,8.72-6.38.74-.54,1.43-.8,2.1-.8s1.3.25,1.99.75c4.85,3.52,9.86,7.16,14.73,10.86.71.54,1.32,1.63,1.33,2.39.11,5.48.13,11.34.04,18.45-.02,1.72-1.43,3.08-3.21,3.08-.28,0-.55-.03-.83-.1l-.2-.05c-1.07-.25-2.17-.51-3.19-.92-.92-.37-1.73-.55-2.48-.55-1.36,0-2.54.6-3.59,1.83l-.28.32,3.01.85c1.91.54,3.8,1.09,5.71,1.58.64.17,1.28.25,1.91.25,3.68,0,6.38-2.79,6.4-6.64.03-3.77.02-7.54.02-11.31,0-2.14,0-4.27,0-6.41Zm-29.1,3.23c.61-.62,1.42-1.1,2.21-1.56.38-.22.76-.44,1.1-.68,1.14-.76,2.25-1.55,3.37-2.33l.28-.2c.35-.25.61-.36.86-.36s.48.1.79.32c1.16.83,2.35,1.62,3.53,2.42,1.08.72,2.16,1.45,3.22,2.2.38.27.79.79.8,1.15.12,4.57-.65,9.61-7.17,12.41-.33.14-.76.22-1.2.22-.4,0-.79-.07-1.09-.19-.61-.25-1.19-.54-1.72-.84-2.81-1.56-4.78-4.43-5.27-7.67-.11-.55-.15-1.08-.19-1.65-.03-.39-.06-.79-.12-1.19-.13-.83.08-1.55.6-2.04Z" />
        <path class="cls-1" d="m20.7,29.82v2.14c0,.68.55,1.23,1.23,1.23s1.23-.55,1.23-1.23v-2.14c.58-.4.96-1.06.96-1.81,0-1.21-.98-2.19-2.2-2.19-1.49.06-2.17,1.18-2.17,2.19,0,.68.31,1.39.95,1.82Z" />
    </g>
    <g>
        <path class="cls-1" d="m66.06,35.98l-7.04-9.25v9.25h-5.1V15.04h5.1v9.19l6.98-9.19h6l-8.11,10.26,8.41,10.68h-6.23Z" />
        <path class="cls-1" d="m77.89,35.17c-1.3-.7-2.33-1.69-3.07-2.98-.75-1.29-1.12-2.8-1.12-4.53s.38-3.22,1.13-4.52c.76-1.3,1.79-2.3,3.1-3,1.31-.7,2.78-1.04,4.42-1.04s3.1.35,4.42,1.04c1.31.7,2.35,1.7,3.1,3,.76,1.3,1.13,2.81,1.13,4.52s-.38,3.22-1.15,4.52c-.77,1.3-1.81,2.3-3.13,3-1.32.7-2.8,1.04-4.43,1.04s-3.1-.35-4.4-1.04Zm6.89-4.45c.69-.72,1.03-1.74,1.03-3.07s-.33-2.36-1-3.07c-.67-.72-1.49-1.07-2.46-1.07s-1.82.35-2.48,1.06c-.66.71-.98,1.74-.98,3.09s.32,2.36.97,3.07c.65.72,1.46,1.07,2.43,1.07s1.8-.36,2.49-1.07Z" />
        <path class="cls-1" d="m108.53,21.05c1.16,1.26,1.75,3,1.75,5.21v9.73h-5.07v-9.04c0-1.11-.29-1.98-.87-2.6-.58-.62-1.35-.92-2.33-.92s-1.75.31-2.33.92c-.58.62-.87,1.48-.87,2.6v9.04h-5.1v-16.65h5.1v2.21c.52-.74,1.21-1.32,2.09-1.75.87-.43,1.86-.64,2.95-.64,1.95,0,3.51.63,4.67,1.89Z" />
        <path class="cls-1" d="m123.23,19.81c.88.48,1.57,1.1,2.04,1.88v-2.36h5.1v16.62c0,1.53-.3,2.92-.91,4.16-.61,1.24-1.53,2.23-2.77,2.97-1.24.74-2.79,1.1-4.64,1.1-2.47,0-4.46-.58-6-1.75-1.53-1.16-2.41-2.74-2.63-4.73h5.04c.16.64.54,1.14,1.13,1.51.6.37,1.33.55,2.21.55,1.05,0,1.89-.3,2.52-.91.63-.61.94-1.58.94-2.91v-2.36c-.5.78-1.18,1.41-2.06,1.89-.88.49-1.9.73-3.07.73-1.37,0-2.62-.35-3.73-1.06-1.11-.71-1.99-1.71-2.64-3.01-.65-1.3-.97-2.81-.97-4.52s.32-3.21.97-4.5c.65-1.29,1.53-2.29,2.64-2.98,1.11-.7,2.36-1.04,3.73-1.04,1.17,0,2.2.24,3.09.72Zm.98,4.83c-.71-.74-1.57-1.1-2.58-1.1s-1.87.36-2.58,1.09c-.71.73-1.06,1.73-1.06,3s.35,2.28,1.06,3.03c.71.75,1.57,1.12,2.58,1.12s1.87-.37,2.58-1.1c.71-.74,1.06-1.74,1.06-3.01s-.35-2.28-1.06-3.01Z" />
        <path class="cls-1" d="m150.51,19.33v16.65h-5.1v-2.27c-.52.74-1.22,1.33-2.1,1.77-.89.45-1.86.67-2.94.67-1.27,0-2.4-.28-3.37-.85-.97-.57-1.73-1.39-2.27-2.46-.54-1.07-.81-2.34-.81-3.79v-9.73h5.07v9.04c0,1.11.29,1.98.87,2.6.58.62,1.35.92,2.33.92s1.78-.31,2.36-.92c.58-.62.87-1.48.87-2.6v-9.04h5.1Z" />
        <path class="cls-1" d="m168.99,21.05c1.16,1.26,1.75,3,1.75,5.21v9.73h-5.07v-9.04c0-1.11-.29-1.98-.87-2.6-.58-.62-1.35-.92-2.33-.92s-1.75.31-2.33.92c-.58.62-.87,1.48-.87,2.6v9.04h-5.1v-16.65h5.1v2.21c.52-.74,1.21-1.32,2.09-1.75.87-.43,1.86-.64,2.95-.64,1.95,0,3.51.63,4.67,1.89Z" />
        <path class="cls-1" d="m174.24,23.12c.65-1.29,1.53-2.29,2.64-2.98,1.11-.7,2.36-1.04,3.73-1.04,1.17,0,2.2.24,3.09.72.88.48,1.57,1.1,2.04,1.88v-2.36h5.1v16.65h-5.1v-2.36c-.5.78-1.19,1.4-2.07,1.88-.89.48-1.91.72-3.09.72-1.35,0-2.59-.35-3.7-1.06-1.11-.71-1.99-1.71-2.64-3.01-.65-1.3-.97-2.81-.97-4.52s.32-3.21.97-4.5Zm10.44,1.52c-.71-.74-1.57-1.1-2.58-1.1s-1.87.36-2.58,1.09c-.71.73-1.06,1.73-1.06,3s.35,2.28,1.06,3.03c.71.75,1.57,1.12,2.58,1.12s1.87-.37,2.58-1.1c.71-.74,1.06-1.74,1.06-3.01s-.35-2.28-1.06-3.01Z" />
        <path class="cls-1" d="m194.5,23.12c.65-1.29,1.53-2.29,2.64-2.98,1.11-.7,2.36-1.04,3.73-1.04,1.09,0,2.09.23,3,.69.9.46,1.62,1.07,2.13,1.85v-7.73h5.1v22.08h-5.1v-2.39c-.48.8-1.16,1.43-2.04,1.91-.89.48-1.91.72-3.09.72-1.37,0-2.62-.35-3.73-1.06-1.11-.71-1.99-1.71-2.64-3.01-.65-1.3-.97-2.81-.97-4.52s.32-3.21.97-4.5Zm10.44,1.52c-.71-.74-1.57-1.1-2.58-1.1s-1.87.36-2.58,1.09c-.71.73-1.06,1.73-1.06,3s.35,2.28,1.06,3.03c.71.75,1.57,1.12,2.58,1.12s1.87-.37,2.58-1.1c.71-.74,1.06-1.74,1.06-3.01s-.35-2.28-1.06-3.01Z" />
        <path class="cls-1" d="m226.23,32.04h6.68v3.94h-11.78V15.04h5.1v17Z" />
        <path class="cls-1" d="m238.53,35.17c-1.3-.7-2.33-1.69-3.07-2.98-.75-1.29-1.12-2.8-1.12-4.53s.38-3.22,1.13-4.52c.76-1.3,1.79-2.3,3.1-3,1.31-.7,2.78-1.04,4.42-1.04s3.1.35,4.42,1.04c1.31.7,2.35,1.7,3.1,3,.76,1.3,1.13,2.81,1.13,4.52s-.38,3.22-1.15,4.52c-.77,1.3-1.81,2.3-3.13,3-1.32.7-2.8,1.04-4.43,1.04s-3.1-.35-4.4-1.04Zm6.89-4.45c.69-.72,1.03-1.74,1.03-3.07s-.33-2.36-1-3.07c-.67-.72-1.49-1.07-2.46-1.07s-1.82.35-2.48,1.06c-.66.71-.98,1.74-.98,3.09s.32,2.36.97,3.07c.65.72,1.46,1.07,2.43,1.07s1.8-.36,2.49-1.07Z" />
        <path class="cls-1" d="m254.4,23.12c.71-1.29,1.69-2.29,2.95-2.98,1.26-.7,2.71-1.04,4.34-1.04,2.09,0,3.83.55,5.24,1.64,1.4,1.09,2.32,2.64,2.76,4.62h-5.43c-.46-1.27-1.34-1.91-2.65-1.91-.94,0-1.68.36-2.24,1.09-.56.73-.84,1.77-.84,3.12s.28,2.39.84,3.12c.56.73,1.3,1.09,2.24,1.09,1.31,0,2.2-.64,2.65-1.91h5.43c-.44,1.95-1.36,3.48-2.77,4.59-1.41,1.11-3.15,1.67-5.22,1.67-1.63,0-3.08-.35-4.34-1.04-1.26-.7-2.25-1.69-2.95-2.98-.71-1.29-1.06-2.8-1.06-4.53s.35-3.24,1.06-4.53Z" />
        <path class="cls-1" d="m282.58,35.98l-5.07-6.98v6.98h-5.1V13.9h5.1v12.2l5.04-6.77h6.29l-6.92,8.35,6.98,8.29h-6.32Z" />
        <path class="cls-1" d="m306.44,28.88h-11.54c.08,1.03.41,1.82,1,2.37.59.55,1.31.82,2.16.82,1.27,0,2.16-.54,2.65-1.61h5.43c-.28,1.09-.78,2.08-1.51,2.95-.73.88-1.64,1.56-2.73,2.06-1.09.5-2.32.75-3.67.75-1.63,0-3.08-.35-4.36-1.04-1.27-.7-2.27-1.69-2.98-2.98-.72-1.29-1.07-2.8-1.07-4.53s.35-3.24,1.06-4.53c.71-1.29,1.7-2.29,2.97-2.98,1.27-.7,2.73-1.04,4.39-1.04s3.04.34,4.3,1.01c1.25.68,2.23,1.64,2.94,2.89.71,1.25,1.06,2.71,1.06,4.39,0,.48-.03.97-.09,1.49Zm-5.13-2.83c0-.87-.3-1.57-.9-2.09-.6-.52-1.34-.78-2.24-.78s-1.58.25-2.16.75c-.59.5-.95,1.2-1.09,2.12h6.38Z" />
        <path class="cls-1" d="m316.55,19.94c.89-.53,1.89-.79,2.98-.79v5.4h-1.4c-1.27,0-2.23.27-2.86.82-.64.55-.95,1.51-.95,2.88v7.73h-5.1v-16.65h5.1v2.77c.6-.91,1.34-1.64,2.24-2.16Z" />
    </g>
</svg>